<svg xmlns="http://www.w3.org/2000/svg" width="1100" height="720" viewBox="0 0 1100 720" role="img" aria-label="Conway Game of Life simulator screenshot"><rect width="1100" height="720" fill="#111412"/><text x="70" y="62" fill="#ffd166" font-family="Arial, sans-serif" font-size="13" font-weight="700">EXPLORE EMERGENT PATTERNS</text><text x="70" y="115" fill="#f7f2e8" font-family="Arial, sans-serif" font-size="48" font-weight="800">Interactive simulator</text><rect x="70" y="150" width="270" height="470" rx="8" fill="#191f1b" stroke="#344238"/><text x="95" y="190" fill="#f7f2e8" font-family="Arial, sans-serif" font-size="16" font-weight="700">Controls</text><rect x="95" y="215" width="95" height="44" rx="7" fill="#222920" stroke="#344238"/><text x="126" y="243" fill="#f7f2e8" font-family="Arial, sans-serif" font-size="14" font-weight="700">Pause</text><rect x="205" y="215" width="95" height="44" rx="7" fill="#222920" stroke="#344238"/><text x="236" y="243" fill="#f7f2e8" font-family="Arial, sans-serif" font-size="14" font-weight="700">Step</text><rect x="95" y="275" width="205" height="52" rx="7" fill="#101411" stroke="#344238"/><text x="112" y="307" fill="#f7f2e8" font-family="Arial, sans-serif" font-size="14" font-weight="700">Gosper glider gun</text><rect x="95" y="348" width="205" height="44" rx="7" fill="#222920" stroke="#344238"/><text x="148" y="376" fill="#f7f2e8" font-family="Arial, sans-serif" font-size="14" font-weight="700">Load pattern</text><text x="95" y="444" fill="#b8b1a5" font-family="Arial, sans-serif" font-size="13" font-weight="700">Generation</text><text x="275" y="444" fill="#ffd166" font-family="Arial, sans-serif" font-size="20" font-weight="800">42</text><text x="95" y="493" fill="#b8b1a5" font-family="Arial, sans-serif" font-size="13" font-weight="700">Live cells</text><text x="267" y="493" fill="#ffd166" font-family="Arial, sans-serif" font-size="20" font-weight="800">128</text><text x="95" y="542" fill="#b8b1a5" font-family="Arial, sans-serif" font-size="13" font-weight="700">Density</text><text x="258" y="542" fill="#ffd166" font-family="Arial, sans-serif" font-size="20" font-weight="800">2.1%</text><rect x="390" y="150" width="680" height="470" rx="8" fill="#090c0a" stroke="#344238"/><path d="M390 150 V620" stroke="#17342d" stroke-width="1"/><path d="M402 150 V620" stroke="#17342d" stroke-width="1"/><path d="M414 150 V620" stroke="#17342d" stroke-width="1"/><path d="M426 150 V620" stroke="#17342d" stroke-width="1"/><path d="M438 150 V620" stroke="#17342d" stroke-width="1"/><path d="M450 150 V620" stroke="#17342d" stroke-width="1"/><path d="M462 150 V620" stroke="#17342d" stroke-width="1"/><path d="M474 150 V620" stroke="#17342d" stroke-width="1"/><path d="M486 150 V620" stroke="#17342d" stroke-width="1"/><path d="M498 150 V620" stroke="#17342d" stroke-width="1"/><path d="M510 150 V620" stroke="#17342d" stroke-width="1"/><path d="M522 150 V620" stroke="#17342d" stroke-width="1"/><path d="M534 150 V620" stroke="#17342d" stroke-width="1"/><path d="M546 150 V620" stroke="#17342d" stroke-width="1"/><path d="M558 150 V620" stroke="#17342d" stroke-width="1"/><path d="M570 150 V620" stroke="#17342d" stroke-width="1"/><path d="M582 150 V620" stroke="#17342d" stroke-width="1"/><path d="M594 150 V620" stroke="#17342d" stroke-width="1"/><path d="M606 150 V620" stroke="#17342d" stroke-width="1"/><path d="M618 150 V620" stroke="#17342d" stroke-width="1"/><path d="M630 150 V620" stroke="#17342d" stroke-width="1"/><path d="M642 150 V620" stroke="#17342d" stroke-width="1"/><path d="M654 150 V620" stroke="#17342d" stroke-width="1"/><path d="M666 150 V620" stroke="#17342d" stroke-width="1"/><path d="M678 150 V620" stroke="#17342d" stroke-width="1"/><path d="M690 150 V620" stroke="#17342d" stroke-width="1"/><path d="M702 150 V620" stroke="#17342d" stroke-width="1"/><path d="M714 150 V620" stroke="#17342d" stroke-width="1"/><path d="M726 150 V620" stroke="#17342d" stroke-width="1"/><path d="M738 150 V620" stroke="#17342d" stroke-width="1"/><path d="M750 150 V620" stroke="#17342d" stroke-width="1"/><path d="M762 150 V620" stroke="#17342d" stroke-width="1"/><path d="M774 150 V620" stroke="#17342d" stroke-width="1"/><path d="M786 150 V620" stroke="#17342d" stroke-width="1"/><path d="M798 150 V620" stroke="#17342d" stroke-width="1"/><path d="M810 150 V620" stroke="#17342d" stroke-width="1"/><path d="M822 150 V620" stroke="#17342d" stroke-width="1"/><path d="M834 150 V620" stroke="#17342d" stroke-width="1"/><path d="M846 150 V620" stroke="#17342d" stroke-width="1"/><path d="M858 150 V620" stroke="#17342d" stroke-width="1"/><path d="M870 150 V620" stroke="#17342d" stroke-width="1"/><path d="M882 150 V620" stroke="#17342d" stroke-width="1"/><path d="M894 150 V620" stroke="#17342d" stroke-width="1"/><path d="M906 150 V620" stroke="#17342d" stroke-width="1"/><path d="M918 150 V620" stroke="#17342d" stroke-width="1"/><path d="M930 150 V620" stroke="#17342d" stroke-width="1"/><path d="M942 150 V620" stroke="#17342d" stroke-width="1"/><path d="M954 150 V620" stroke="#17342d" stroke-width="1"/><path d="M966 150 V620" stroke="#17342d" stroke-width="1"/><path d="M978 150 V620" stroke="#17342d" stroke-width="1"/><path d="M990 150 V620" stroke="#17342d" stroke-width="1"/><path d="M1002 150 V620" stroke="#17342d" stroke-width="1"/><path d="M1014 150 V620" stroke="#17342d" stroke-width="1"/><path d="M1026 150 V620" stroke="#17342d" stroke-width="1"/><path d="M1038 150 V620" stroke="#17342d" stroke-width="1"/><path d="M1050 150 V620" stroke="#17342d" stroke-width="1"/><path d="M1062 150 V620" stroke="#17342d" stroke-width="1"/><path d="M390 150 H1070" stroke="#17342d" stroke-width="1"/><path d="M390 162 H1070" stroke="#17342d" stroke-width="1"/><path d="M390 174 H1070" stroke="#17342d" stroke-width="1"/><path d="M390 186 H1070" stroke="#17342d" stroke-width="1"/><path d="M390 198 H1070" stroke="#17342d" stroke-width="1"/><path d="M390 210 H1070" stroke="#17342d" stroke-width="1"/><path d="M390 222 H1070" stroke="#17342d" stroke-width="1"/><path d="M390 234 H1070" stroke="#17342d" stroke-width="1"/><path d="M390 246 H1070" stroke="#17342d" stroke-width="1"/><path d="M390 258 H1070" stroke="#17342d" stroke-width="1"/><path d="M390 270 H1070" stroke="#17342d" stroke-width="1"/><path d="M390 282 H1070" stroke="#17342d" stroke-width="1"/><path d="M390 294 H1070" stroke="#17342d" stroke-width="1"/><path d="M390 306 H1070" stroke="#17342d" stroke-width="1"/><path d="M390 318 H1070" stroke="#17342d" stroke-width="1"/><path d="M390 330 H1070" stroke="#17342d" stroke-width="1"/><path d="M390 342 H1070" stroke="#17342d" stroke-width="1"/><path d="M390 354 H1070" stroke="#17342d" stroke-width="1"/><path d="M390 366 H1070" stroke="#17342d" stroke-width="1"/><path d="M390 378 H1070" stroke="#17342d" stroke-width="1"/><path d="M390 390 H1070" stroke="#17342d" stroke-width="1"/><path d="M390 402 H1070" stroke="#17342d" stroke-width="1"/><path d="M390 414 H1070" stroke="#17342d" stroke-width="1"/><path d="M390 426 H1070" stroke="#17342d" stroke-width="1"/><path d="M390 438 H1070" stroke="#17342d" stroke-width="1"/><path d="M390 450 H1070" stroke="#17342d" stroke-width="1"/><path d="M390 462 H1070" stroke="#17342d" stroke-width="1"/><path d="M390 474 H1070" stroke="#17342d" stroke-width="1"/><path d="M390 486 H1070" stroke="#17342d" stroke-width="1"/><path d="M390 498 H1070" stroke="#17342d" stroke-width="1"/><path d="M390 510 H1070" stroke="#17342d" stroke-width="1"/><path d="M390 522 H1070" stroke="#17342d" stroke-width="1"/><path d="M390 534 H1070" stroke="#17342d" stroke-width="1"/><path d="M390 546 H1070" stroke="#17342d" stroke-width="1"/><path d="M390 558 H1070" stroke="#17342d" stroke-width="1"/><path d="M390 570 H1070" stroke="#17342d" stroke-width="1"/><path d="M390 582 H1070" stroke="#17342d" stroke-width="1"/><path d="M390 594 H1070" stroke="#17342d" stroke-width="1"/><path d="M390 606 H1070" stroke="#17342d" stroke-width="1"/><path d="M390 618 H1070" stroke="#17342d" stroke-width="1"/><rect x="560" y="310" width="10" height="10" fill="#ffd166"/><rect x="575" y="310" width="10" height="10" fill="#2ec4b6"/><rect x="590" y="325" width="10" height="10" fill="#2ec4b6"/><rect x="605" y="340" width="10" height="10" fill="#2ec4b6"/><rect x="590" y="355" width="10" height="10" fill="#2ec4b6"/><rect x="575" y="355" width="10" height="10" fill="#2ec4b6"/><rect x="560" y="340" width="10" height="10" fill="#2ec4b6"/><rect x="545" y="340" width="10" height="10" fill="#ffd166"/><rect x="645" y="320" width="10" height="10" fill="#2ec4b6"/><rect x="660" y="320" width="10" height="10" fill="#2ec4b6"/><rect x="675" y="335" width="10" height="10" fill="#2ec4b6"/><rect x="675" y="350" width="10" height="10" fill="#2ec4b6"/><rect x="660" y="365" width="10" height="10" fill="#2ec4b6"/><rect x="645" y="365" width="10" height="10" fill="#2ec4b6"/><rect x="630" y="350" width="10" height="10" fill="#ffd166"/><rect x="705" y="330" width="10" height="10" fill="#2ec4b6"/><rect x="720" y="330" width="10" height="10" fill="#2ec4b6"/><rect x="735" y="345" width="10" height="10" fill="#2ec4b6"/><rect x="720" y="360" width="10" height="10" fill="#2ec4b6"/><rect x="705" y="360" width="10" height="10" fill="#2ec4b6"/><rect x="790" y="300" width="10" height="10" fill="#2ec4b6"/><rect x="805" y="300" width="10" height="10" fill="#ffd166"/><rect x="820" y="315" width="10" height="10" fill="#2ec4b6"/><rect x="835" y="330" width="10" height="10" fill="#2ec4b6"/><rect x="835" y="345" width="10" height="10" fill="#2ec4b6"/><rect x="820" y="360" width="10" height="10" fill="#2ec4b6"/><rect x="805" y="375" width="10" height="10" fill="#2ec4b6"/><rect x="790" y="375" width="10" height="10" fill="#2ec4b6"/><rect x="775" y="360" width="10" height="10" fill="#ffd166"/><rect x="775" y="345" width="10" height="10" fill="#2ec4b6"/><rect x="775" y="330" width="10" height="10" fill="#2ec4b6"/><rect x="950" y="320" width="10" height="10" fill="#2ec4b6"/><rect x="965" y="320" width="10" height="10" fill="#2ec4b6"/><rect x="950" y="335" width="10" height="10" fill="#2ec4b6"/><rect x="965" y="335" width="10" height="10" fill="#2ec4b6"/></svg>